<svg width="102" height="99" viewBox="0 0 102 99" fill="none" xmlns="http://www.w3.org/2000/svg">
<path d="M57.0459 58.4663H76.3212L87.8864 70.0315V97.0169H57.0459V58.4663Z" fill="white"/>
<path fill-rule="evenodd" clip-rule="evenodd" d="M57.0458 97.0165H87.8862V70.0311L76.321 58.4659H57.0458V97.0165ZM76.321 57.1809H55.7607V98.3015H89.1712V70.0311L76.321 57.1809Z" fill="#BFBFBF"/>
<path d="M63.4713 86.7369H62.1862V88.0219H63.4713V86.7369Z" fill="#F36700"/>
<path d="M67.3263 86.7369H68.6113V88.0219H67.3263V86.7369Z" fill="#F36700"/>
<path fill-rule="evenodd" clip-rule="evenodd" d="M59.6162 84.1669C59.6162 83.4572 60.1915 82.8818 60.9012 82.8818H84.0316C84.7413 82.8818 85.3166 83.4572 85.3166 84.1669V93.162C85.3166 93.8717 84.7413 94.447 84.0316 94.447H60.9012C60.1915 94.447 59.6162 93.8717 59.6162 93.162V84.1669ZM80.1765 85.4519H78.8915V88.0219H80.1765V89.3069H78.8915V91.877H80.1765V89.3069H82.7466V91.877H84.0316V89.3069H82.7466V88.0219H84.0316V85.4519H82.7466V88.0219H80.1765V85.4519ZM71.1814 85.4519H77.6065V86.7369H75.0364V91.877H73.7514V86.7369H71.1814V85.4519ZM60.9012 85.4519V91.877H62.1862V89.3069H64.7563V85.4519H60.9012ZM66.0413 91.877V85.4519H69.8964V89.3069H67.3263V91.877H66.0413Z" fill="#F36700"/>
<path d="M59.6162 62.321V80.3113H85.3166V68.7461H84.0316V79.0263H60.9012V63.6061H76.3215V62.321H59.6162Z" fill="#BFBFBF"/>
<path d="M76.3215 66.1761H72.4664V64.8911H67.3263V67.4611H76.3215V66.1761Z" fill="#BFBFBF"/>
<path d="M64.7563 64.8911H62.1862V67.4611H64.7563V64.8911Z" fill="#BFBFBF"/>
<path d="M73.7514 70.0312V71.3162H71.1814V72.6012H67.3263V70.0312H73.7514Z" fill="#BFBFBF"/>
<path d="M64.7563 75.1712H62.1862V77.7413H64.7563V75.1712Z" fill="#BFBFBF"/>
<path d="M67.3263 75.1712H71.1814V76.4563H81.4615V77.7413H67.3263V75.1712Z" fill="#BFBFBF"/>
<path d="M64.7563 70.0312H62.1862V72.6012H64.7563V70.0312Z" fill="#BFBFBF"/>
<path opacity="0.3" d="M75.0361 70.0318V58.4663H76.3212V68.7468H87.8863L89.1713 70.0315L75.0361 70.0318Z" fill="black"/>
<path d="M70.5244 1.57031L89.1 6.54763L97.259 20.6794L90.2907 46.6852L60.5698 38.7215L70.5244 1.57031Z" fill="white"/>
<path fill-rule="evenodd" clip-rule="evenodd" d="M60.5701 38.7214L90.291 46.6851L97.2593 20.6792L89.1003 6.54751L70.5247 1.57019L60.5701 38.7214ZM89.4321 5.30913L69.6182 0L58.9999 39.6279L91.1976 48.2553L98.4976 21.0111L89.4321 5.30913Z" fill="#BFBFBF"/>
<path fill-rule="evenodd" clip-rule="evenodd" d="M66.3654 27.0013C66.5487 26.3174 67.2517 25.9115 67.9356 26.0948L90.2263 32.0675C90.9103 32.2508 91.3162 32.9538 91.1329 33.6377L88.8101 42.3063C88.6269 42.9903 87.9239 43.3961 87.24 43.2129L64.9492 37.2401C64.2653 37.0569 63.8594 36.3539 64.0427 35.6699L66.3654 27.0013ZM74.7022 30.5624L73.4639 30.2306L71.8048 36.4225L75.5199 37.4179L75.8517 36.1796L73.3749 35.5159L74.7022 30.5624ZM79.6557 31.8897L82.1325 32.5534L81.8006 33.7917L79.3239 33.1281L79.6557 31.8897ZM78.9921 34.3665L77.7537 34.0346L78.0855 32.7963L79.3239 33.1281L78.9921 34.3665ZM81.137 36.2685L78.6603 35.6048L78.9921 34.3665L81.4688 35.0301L81.137 36.2685ZM80.8052 37.5068L81.137 36.2685L82.3754 36.6003L82.0436 37.8387L80.8052 37.5068ZM80.8052 37.5068L80.4734 38.7452L76.7582 37.7498L77.0901 36.5114L80.8052 37.5068ZM72.2255 29.8988L70.9871 29.567L70.3235 32.0437L67.8467 31.3801L68.5104 28.9033L67.272 28.5715L66.6084 31.0483L67.8467 31.3801L67.5149 32.6184L66.2765 32.2866L65.6129 34.7634L66.8513 35.0952L67.5149 32.6184L69.9917 33.2821L69.328 35.7588L70.5664 36.0907L71.23 33.6139L69.9917 33.2821L70.3235 32.0437L71.5618 32.3755L72.2255 29.8988ZM88.3243 34.2125L89.5627 34.5443L88.8991 37.021L87.6607 36.6892L88.3243 34.2125ZM87.3289 37.9276L87.6607 36.6892L85.1839 36.0256L85.8476 33.5488L84.6092 33.217L83.9456 35.6937L85.1839 36.0256L84.8521 37.2639L83.6137 36.9321L82.9501 39.4089L84.1885 39.7407L84.8521 37.2639L87.3289 37.9276ZM87.3289 37.9276L88.5672 38.2594L87.9036 40.7361L86.6652 40.4043L87.3289 37.9276Z" fill="#6AAA1E"/>
<path fill-rule="evenodd" clip-rule="evenodd" d="M67.3602 23.2861L92.1276 29.9225L95.114 18.7772L79.0152 14.4635L80.0106 10.7484L87.4408 12.7393L87.6725 11.4741L71.6738 7.18726L67.3602 23.2861ZM87.3519 18.0246L86.3565 21.7397L92.5483 23.3988L93.5438 19.6837L87.3519 18.0246ZM85.1181 21.4079L86.1136 17.6928L78.6833 15.7019L77.6879 19.417L85.1181 21.4079ZM78.7722 10.4166L77.7768 14.1317L71.5849 12.4726L72.5804 8.75745L78.7722 10.4166ZM71.2531 13.7109L77.445 15.37L76.4495 19.0852L70.2576 17.4261L71.2531 13.7109ZM69.9258 18.6644L76.1177 20.3235L75.1222 24.0387L68.9303 22.3795L69.9258 18.6644ZM84.7863 22.6463L77.356 20.6554L76.3606 24.3705L83.7908 26.3614L84.7863 22.6463ZM85.0292 26.6932L86.0247 22.9781L92.2165 24.6372L91.2211 28.3523L85.0292 26.6932Z" fill="#BFBFBF"/>
<path opacity="0.3" d="M84.8758 17.3612L87.8623 6.21558L89.1007 6.5474L86.446 16.4547L97.5914 19.4411L98.498 21.011L84.8758 17.3612Z" fill="black"/>
<path d="M1.88867 23.6147L24.2373 17.6265L41.2394 27.4426L49.623 58.7307L13.8652 68.3119L1.88867 23.6147Z" fill="white"/>
<path fill-rule="evenodd" clip-rule="evenodd" d="M13.8657 68.3128L49.6234 58.7315L41.2398 27.4435L24.2377 17.6273L1.88912 23.6156L13.8657 68.3128ZM23.8385 16.1374L0 22.5249L12.775 70.2019L51.5125 59.8222L42.7297 27.0443L23.8385 16.1374Z" fill="#BFBFBF"/>
<path fill-rule="evenodd" clip-rule="evenodd" d="M12.8533 52.6147C12.6328 51.7918 13.1212 50.946 13.944 50.7255L40.7623 43.5396C41.5852 43.3191 42.4309 43.8074 42.6514 44.6303L45.446 55.0596C45.6664 55.8825 45.1781 56.7283 44.3553 56.9487L17.537 64.1347C16.7141 64.3552 15.8683 63.8669 15.6479 63.044L12.8533 52.6147ZM37.091 47.7171L35.6011 48.1163L36.3996 51.0961L37.8895 50.6969L38.2887 52.1868L36.7988 52.586L37.5972 55.5658L39.0871 55.1666L38.2887 52.1868L41.2685 51.3883L42.0669 54.3682L43.5568 53.9689L42.7584 50.9891L41.2685 51.3883L40.8693 49.8984L42.3592 49.4992L41.5607 46.5194L40.0708 46.9186L40.8693 49.8984L37.8895 50.6969L37.091 47.7171ZM16.7385 61.1549L14.7424 53.7053L19.2122 52.5077L19.6114 53.9976L16.6316 54.796L17.8292 59.2658L20.809 58.4673L21.2083 59.9572L16.7385 61.1549ZM20.809 58.4673L19.6114 53.9976L21.1013 53.5984L22.2989 58.0681L20.809 58.4673ZM34.1112 48.5155L31.1314 49.3139L31.5306 50.8038L30.0407 51.2031L31.2384 55.6728L32.7283 55.2736L33.1275 56.7635L36.1073 55.965L35.7081 54.4751L32.7283 55.2736L31.5306 50.8038L34.5104 50.0054L34.1112 48.5155ZM24.0811 52.7999L23.6819 51.31L26.6617 50.5116L27.0609 52.0015L24.0811 52.7999ZM25.2788 57.2697L23.7888 57.6689L22.5912 53.1992L24.0811 52.7999L25.2788 57.2697ZM28.2586 56.4712L28.6578 57.9611L25.678 58.7596L25.2788 57.2697L28.2586 56.4712ZM28.2586 56.4712L29.7485 56.072L28.5508 51.6023L27.0609 52.0015L28.2586 56.4712Z" fill="#1E7AAA"/>
<path d="M25.4352 22.0968L6.06641 27.2866L6.86484 30.2664L26.2336 25.0766L25.4352 22.0968Z" fill="#C4C4C4"/>
<path d="M27.0321 28.0564L7.66328 33.2462L8.46172 36.2261L38.2598 28.2417L37.8606 26.7518L27.4313 29.5463L27.0321 28.0564Z" fill="#C4C4C4"/>
<path d="M39.0583 31.2215L9.26016 39.2059L10.0586 42.1857L39.8567 34.2013L39.0583 31.2215Z" fill="#C4C4C4"/>
<path d="M10.857 45.1655L31.7157 39.5764L32.5141 42.5562L11.6555 48.1453L10.857 45.1655Z" fill="#C4C4C4"/>
<path opacity="0.3" d="M26.3411 31.4351L22.748 18.0256L24.238 17.6264L27.4318 29.546L40.841 25.9531L42.73 27.0434L26.3411 31.4351Z" fill="black"/>
</svg>
