<svg width="586" height="369" viewBox="0 0 586 369" fill="none" xmlns="http://www.w3.org/2000/svg">
<circle cx="293" cy="333" r="227" fill="#A6DCF2" fill-opacity="0.11"/>
<g filter="url(#filter0_f_321_58675)">
<circle cx="293" cy="293" r="268" fill="#A6DCF2" fill-opacity="0.11"/>
</g>
<circle cx="290.624" cy="333" r="163.624" fill="#A6DCF2" fill-opacity="0.11"/>
<circle cx="290.52" cy="333.576" r="98.5203" fill="#A6DCF2" fill-opacity="0.1"/>
<path d="M290.046 287.423H309.321L320.886 298.988V325.973H290.046V287.423Z" fill="white"/>
<path fill-rule="evenodd" clip-rule="evenodd" d="M290.046 325.973H320.886V298.987L309.321 287.422H290.046V325.973ZM309.321 286.137H288.761V327.258H322.171V298.987L309.321 286.137Z" fill="#BFBFBF"/>
<path d="M296.471 315.693H295.186V316.978H296.471V315.693Z" fill="#F36700"/>
<path d="M300.326 315.693H301.611V316.978H300.326V315.693Z" fill="#F36700"/>
<path fill-rule="evenodd" clip-rule="evenodd" d="M292.616 313.123C292.616 312.413 293.192 311.838 293.901 311.838H317.032C317.741 311.838 318.317 312.413 318.317 313.123V322.118C318.317 322.828 317.741 323.403 317.032 323.403H293.901C293.192 323.403 292.616 322.828 292.616 322.118V313.123ZM313.177 314.408H311.892V316.978H313.177V318.263H311.892V320.833H313.177V318.263H315.747V320.833H317.032V318.263H315.747V316.978H317.032V314.408H315.747V316.978H313.177V314.408ZM304.181 314.408H310.606V315.693H308.036V320.833H306.751V315.693H304.181V314.408ZM293.901 314.408V320.833H295.186V318.263H297.756V314.408H293.901ZM299.041 320.833V314.408H302.896V318.263H300.326V320.833H299.041Z" fill="#F36700"/>
<path d="M292.616 291.277V309.268H318.317V297.702H317.032V307.983H293.901V292.562H309.321V291.277H292.616Z" fill="#BFBFBF"/>
<path d="M309.321 295.132H305.466V293.847H300.326V296.417H309.321V295.132Z" fill="#BFBFBF"/>
<path d="M297.756 293.847H295.186V296.417H297.756V293.847Z" fill="#BFBFBF"/>
<path d="M306.751 298.987V300.272H304.181V301.557H300.326V298.987H306.751Z" fill="#BFBFBF"/>
<path d="M297.756 304.127H295.186V306.697H297.756V304.127Z" fill="#BFBFBF"/>
<path d="M300.326 304.127H304.181V305.412H314.462V306.697H300.326V304.127Z" fill="#BFBFBF"/>
<path d="M297.756 298.987H295.186V301.557H297.756V298.987Z" fill="#BFBFBF"/>
<path opacity="0.3" d="M308.036 298.988V287.423H309.321V297.703H320.886L322.171 298.988L308.036 298.988Z" fill="black"/>
<path d="M303.455 230.552L322.332 235.61L330.623 249.971L323.542 276.398L293.339 268.306L303.455 230.552Z" fill="white"/>
<path fill-rule="evenodd" clip-rule="evenodd" d="M293.339 268.305L323.542 276.398L330.623 249.971L322.332 235.61L303.455 230.552L293.339 268.305ZM322.669 234.351L302.534 228.956L291.744 269.227L324.464 277.994L331.882 250.308L322.669 234.351Z" fill="#BFBFBF"/>
<path fill-rule="evenodd" clip-rule="evenodd" d="M300.824 255.474C300.129 255.288 299.414 255.701 299.228 256.396L296.868 265.205C296.682 265.9 297.094 266.614 297.789 266.801L320.441 272.87C321.136 273.056 321.851 272.644 322.037 271.949L324.397 263.14C324.584 262.445 324.171 261.73 323.476 261.544L300.824 255.474ZM310.217 260.689L311.476 261.026L310.127 266.06L312.644 266.734L312.306 267.993L308.531 266.981L310.217 260.689ZM320.285 263.387L317.768 262.712L317.431 263.971L316.172 263.633L315.835 264.892L317.093 265.229L316.756 266.488L319.273 267.162L318.936 268.42L315.161 267.409L314.823 268.667L318.599 269.679L318.936 268.42L320.194 268.758L320.532 267.499L319.273 267.162L319.61 265.904L317.093 265.229L317.431 263.971L319.948 264.645L320.285 263.387ZM303.588 260.261L303.925 259.003L301.408 258.329L301.071 259.587L302.329 259.924L301.992 261.183L303.25 261.52L302.913 262.778L301.655 262.441L301.318 263.7L300.059 263.362L299.722 264.621L302.239 265.295L302.576 264.037L303.834 264.374L303.497 265.632L306.014 266.307L306.351 265.048L305.093 264.711L305.43 263.453L304.172 263.116L304.509 261.857L305.767 262.194L306.105 260.936L307.363 261.273L307.7 260.015L305.183 259.34L304.846 260.599L303.588 260.261Z" fill="#6AAA1E"/>
<path fill-rule="evenodd" clip-rule="evenodd" d="M300.239 252.62L325.408 259.364L328.443 248.038L312.083 243.654L313.095 239.879L320.646 241.902L320.881 240.617L304.623 236.26L300.239 252.62ZM320.555 247.273L319.544 251.049L325.836 252.735L326.848 248.959L320.555 247.273ZM318.285 250.711L319.297 246.936L311.746 244.913L310.735 248.688L318.285 250.711ZM311.837 239.542L310.825 243.317L304.533 241.631L305.544 237.856L311.837 239.542ZM304.195 242.89L310.488 244.576L309.476 248.351L303.184 246.665L304.195 242.89ZM302.847 247.924L309.139 249.61L308.127 253.385L301.835 251.699L302.847 247.924ZM317.948 251.97L310.397 249.947L309.386 253.722L316.937 255.745L317.948 251.97ZM318.195 256.083L319.207 252.307L325.499 253.993L324.487 257.769L318.195 256.083Z" fill="#BFBFBF"/>
<path opacity="0.3" d="M318.042 246.6L321.077 235.273L322.336 235.61L319.638 245.678L330.964 248.713L331.885 250.309L318.042 246.6Z" fill="black"/>
<path d="M234.889 252.571L257.237 246.583L274.239 256.399L282.623 287.687L246.865 297.268L234.889 252.571Z" fill="white"/>
<path fill-rule="evenodd" clip-rule="evenodd" d="M246.866 297.269L282.623 287.688L274.24 256.4L257.238 246.583L234.889 252.572L246.866 297.269ZM256.838 245.094L233 251.481L245.775 299.158L284.513 288.778L275.73 256L256.838 245.094Z" fill="#BFBFBF"/>
<path fill-rule="evenodd" clip-rule="evenodd" d="M245.853 281.571C245.633 280.748 246.121 279.902 246.944 279.682L273.762 272.496C274.585 272.275 275.431 272.763 275.651 273.586L278.446 284.016C278.666 284.838 278.178 285.684 277.355 285.905L250.537 293.091C249.714 293.311 248.868 292.823 248.648 292L245.853 281.571ZM270.091 276.673L268.601 277.072L269.4 280.052L270.889 279.653L271.289 281.143L269.799 281.542L270.597 284.522L272.087 284.123L271.289 281.143L274.268 280.344L275.067 283.324L276.557 282.925L275.758 279.945L274.268 280.344L273.869 278.854L275.359 278.455L274.561 275.475L273.071 275.875L273.869 278.854L270.889 279.653L270.091 276.673ZM249.739 290.111L247.742 282.661L252.212 281.464L252.611 282.954L249.632 283.752L250.829 288.222L253.809 287.423L254.208 288.913L249.739 290.111ZM253.809 287.423L252.611 282.954L254.101 282.554L255.299 287.024L253.809 287.423ZM267.111 277.472L264.131 278.27L264.531 279.76L263.041 280.159L264.238 284.629L265.728 284.23L266.127 285.719L269.107 284.921L268.708 283.431L265.728 284.23L264.531 279.76L267.51 278.961L267.111 277.472ZM257.081 281.756L256.682 280.266L259.662 279.468L260.061 280.958L257.081 281.756ZM258.279 286.226L256.789 286.625L255.591 282.155L257.081 281.756L258.279 286.226ZM261.259 285.427L261.658 286.917L258.678 287.716L258.279 286.226L261.259 285.427ZM261.259 285.427L262.748 285.028L261.551 280.558L260.061 280.958L261.259 285.427Z" fill="#1E7AAA"/>
<path d="M258.435 251.053L239.066 256.243L239.865 259.223L259.234 254.033L258.435 251.053Z" fill="#C4C4C4"/>
<path d="M260.032 257.012L240.663 262.202L241.462 265.182L271.26 257.198L270.861 255.708L260.431 258.502L260.032 257.012Z" fill="#C4C4C4"/>
<path d="M272.058 260.178L242.26 268.162L243.059 271.142L272.857 263.157L272.058 260.178Z" fill="#C4C4C4"/>
<path d="M243.857 274.122L264.716 268.533L265.514 271.512L244.655 277.101L243.857 274.122Z" fill="#C4C4C4"/>
<path opacity="0.3" d="M259.341 260.391L255.748 246.982L257.238 246.583L260.432 258.502L273.841 254.909L275.73 256L259.341 260.391Z" fill="black"/>
<defs>
<filter id="filter0_f_321_58675" x="0" y="0" width="586" height="586" filterUnits="userSpaceOnUse" color-interpolation-filters="sRGB">
<feFlood flood-opacity="0" result="BackgroundImageFix"/>
<feBlend mode="normal" in="SourceGraphic" in2="BackgroundImageFix" result="shape"/>
<feGaussianBlur stdDeviation="12.5" result="effect1_foregroundBlur_321_58675"/>
</filter>
</defs>
</svg>
