<svg width="24" height="24" viewBox="0 0 24 24" fill="none" xmlns="http://www.w3.org/2000/svg">
<path d="M4 3H15L20 8V21H4V3Z" fill="white"/>
<path fill-rule="evenodd" clip-rule="evenodd" d="M4 14H11.5H20V8L15 3H4V14ZM15 2H3V15H21V8L15 2Z" fill="url(#paint0_linear_737_60915)"/>
<path d="M5.01172 16.8484V20.1672C6 20.1672 6 18.5 6 18.5C6 18.5 6 16.8484 5.01172 16.8484Z" fill="#1E7AAA"/>
<path d="M10 17C9.00114 17 8.99933 17.8672 9.00003 18.5C8.99933 19.1328 9.00114 20 10 20C10.9989 20 11.0007 19.1328 11 18.5C11.0007 17.8672 10.9989 17 10 17Z" fill="#1E7AAA"/>
<path fill-rule="evenodd" clip-rule="evenodd" d="M3 15C3 14.4477 3.44772 14 4 14H20C20.5523 14 21 14.4477 21 15V22C21 22.5523 20.5523 23 20 23H4C3.44772 23 3 22.5523 3 22V15ZM4.24858 16.0002H4.25362C6.04361 15.9951 7 15.9923 7 18.5C7 20.9661 5.96161 21.0115 4 21.0115V16.0007C4.08457 16.0007 4.16743 16.0005 4.24858 16.0002ZM12 18.5C12 19.8807 11.5 21 10 21C8.5 21 8 19.8807 8 18.5C8 17.1193 8.5 16 10 16C11.4087 16 12 17.1193 12 18.5ZM15.97 19C15.831 20.1411 15.2257 21 14.5 21C13.6716 21 13 19.8807 13 18.5C13 17.1193 13.6716 16 14.5 16C15.2257 16 15.831 16.8589 15.97 18H14.9715C14.9029 17.4174 14.7177 17 14.5 17C14.2239 17 14 17.6716 14 18.5C14 19.3284 14.2239 20 14.5 20C14.7177 20 14.9029 19.5826 14.9715 19H15.97ZM18 16L18.5 17.5282L19 16H20L19.0831 18.5L20 21H19L18.5 19.4718L18 21H17L17.9169 18.5L17 16H18Z" fill="#1E7AAA"/>
<path d="M5 4H14V6H5V4Z" fill="#BFBFBF"/>
<path d="M5 7H14V9H5V7Z" fill="#BFBFBF"/>
<path d="M5 10H16V12H5V10Z" fill="#BFBFBF"/>
<path opacity="0.3" d="M13 10V3H14V9H20V10H13Z" fill="black"/>
<defs>
<linearGradient id="paint0_linear_737_60915" x1="11.5" y1="22.3" x2="11.5" y2="2" gradientUnits="userSpaceOnUse">
<stop stop-color="#A8A8A8"/>
<stop offset="1" stop-color="#DADADA"/>
</linearGradient>
</defs>
</svg>
