<svg width="95" height="94" viewBox="0 0 95 94" fill="none" xmlns="http://www.w3.org/2000/svg">
<path fill-rule="evenodd" clip-rule="evenodd" d="M21.1803 51.7V31.96H16.4803C13.6603 31.96 11.7803 34.6173 11.7803 36.66V51.7H21.1803Z" fill="#CCE9FF"/>
<path d="M21.1797 8.46021H63.0097L71.9397 18.3302V50.7602H21.1797V8.46021Z" fill="white"/>
<path d="M62.0703 7.98999L71.9403 18.33H62.0703V7.98999Z" fill="url(#paint0_linear_325_60648)"/>
<path fill-rule="evenodd" clip-rule="evenodd" d="M21.1797 7.52002H62.5397L71.9397 17.8599V45.8586H71.0168L70.9997 17.8599L62.5397 8.46002H22.1197L22.1026 51.7H38.9316V52.64H21.1797V7.52002Z" fill="#333333"/>
<path fill-rule="evenodd" clip-rule="evenodd" d="M61.9001 7.55166C62.0813 7.48164 62.2868 7.53021 62.4174 7.67388L71.8174 18.0139C71.9425 18.1515 71.9747 18.35 71.8995 18.5202C71.8242 18.6903 71.6556 18.8 71.4696 18.8H62.0696C61.8101 18.8 61.5996 18.5896 61.5996 18.33V7.99004C61.5996 7.79586 61.719 7.62168 61.9001 7.55166ZM62.5396 9.20574V17.86H70.4071L62.5396 9.20574Z" fill="#333333"/>
<path fill-rule="evenodd" clip-rule="evenodd" d="M13.3875 33.2712C14.3963 32.3846 15.9059 31.96 17.4203 31.96H22.1208V52.64H11.7803V37.1727C11.7803 35.4868 12.3701 34.1654 13.3875 33.2712ZM14.0082 33.9772C13.2204 34.6696 12.7204 35.7196 12.7204 37.1727V51.7H21.1807V32.9H17.4203C16.0735 32.9 14.8045 33.2772 14.0082 33.9772Z" fill="#333333"/>
<path fill-rule="evenodd" clip-rule="evenodd" d="M71.9404 31.96V45.12H81.3404V36.2467C81.3404 33.1196 79.4721 31.96 76.7475 31.96H71.9404Z" fill="#CCE9FF"/>
<path fill-rule="evenodd" clip-rule="evenodd" d="M71 31.96H76.64C79.1988 31.96 81.34 34.0295 81.34 36.66V46.06H71V31.96ZM71.94 32.9V45.12H80.4V36.66C80.4 34.7012 78.71 32.9 76.64 32.9H71.94Z" fill="#333333"/>
<path fill-rule="evenodd" clip-rule="evenodd" d="M45.1373 45.5591L40.302 50.9392H12.3275C10.017 50.9392 7.783 52.5591 8.03972 54.2405L12.9175 82.4361C13.1742 84.1175 14.8429 85.5402 17.1534 85.5402H79.0242C81.3347 85.5402 83.1317 84.1175 83.2601 82.4361L86.9536 46.7149C87.1632 45.6587 86.089 44.1802 84.2031 44.1802H48.4263C47.1689 44.1802 46.0359 44.6537 45.1373 45.5591Z" fill="url(#paint1_linear_325_60648)"/>
<path fill-rule="evenodd" clip-rule="evenodd" d="M40.8032 51.7167H12.347C10.3202 51.7167 8.64732 52.9668 9.04176 55.4242L13.7522 83.1574L13.7535 83.1664C13.9308 84.3517 15.1388 85.5399 17.0667 85.5399H79.0609C81.0516 85.5399 82.2857 84.3127 82.3663 83.2352L82.3672 83.2233L86.0553 46.5931C86.0553 46.5931 86.0553 45.1199 84.1814 45.1199H48.4019C47.4098 45.1199 46.522 45.4915 45.7974 46.229L40.8032 51.7167ZM45.1065 45.5901L40.3773 50.7767H12.347C10.0319 50.7767 7.45502 52.1125 8.12845 55.4818L12.8222 83.3053C13.0795 85.0249 14.7516 86.4799 17.0667 86.4799H79.0609C81.376 86.4799 83.1767 85.0249 83.3052 83.3053L86.9796 46.7722C86.9796 46.7722 86.9796 44.1799 84.1814 44.1799H48.4019C47.1421 44.1799 46.0068 44.6642 45.1065 45.5901Z" fill="#333333"/>
<path d="M45.6198 14.0552H27.7598V31.0647H45.6198V14.0552Z" fill="white"/>
<path fill-rule="evenodd" clip-rule="evenodd" d="M27.7598 31.0649L33.8698 25.2459L37.1598 28.3792L42.1349 22.1125L45.6198 27.2955V31.0649" fill="#E0E0E0"/>
<path fill-rule="evenodd" clip-rule="evenodd" d="M26.8203 14.0999C26.8203 13.6055 27.2412 13.1599 27.7603 13.1599H45.6203C46.1395 13.1599 46.5603 13.6055 46.5603 14.0999V31.0199C46.5603 31.5144 46.1395 31.9599 45.6203 31.9599H27.7603C27.2412 31.9599 26.8203 31.5144 26.8203 31.0199V14.0999ZM45.6203 14.1292V31.0199H27.7603V14.0999L45.6203 14.1292Z" fill="#333333"/>
<path fill-rule="evenodd" clip-rule="evenodd" d="M27.7693 31.0152H45.6203V27.2952L42.166 22.1123L37.3437 28.9331L33.7252 25.5944L27.7693 31.0152ZM37.1912 27.546L34.3793 24.9515C34.0155 24.6159 33.438 24.615 33.0732 24.9496L27.1083 30.4198C26.7343 30.7627 26.7231 31.3295 27.0832 31.6856C27.4433 32.0418 28.0384 32.0525 28.4123 31.7095L28.6274 31.5123H44.8061C44.9686 31.7798 45.2724 31.9599 45.6203 31.9599C46.1395 31.9599 46.5603 31.5591 46.5603 31.0647V27.2952C46.5603 27.1253 46.5096 26.9589 46.414 26.8155L42.9596 21.6325C42.7896 21.3774 42.4959 21.2212 42.1787 21.2171C41.8614 21.2131 41.5635 21.3616 41.3863 21.6123L37.1912 27.546Z" fill="#333333"/>
<path fill-rule="evenodd" clip-rule="evenodd" d="M26.8203 37.1363C26.8203 36.8902 27.0308 36.6907 27.2903 36.6907H66.7703C67.0298 36.6907 67.2403 36.8902 67.2403 37.1363C67.2403 37.3825 67.0298 37.5821 66.7703 37.5821H27.2903C27.0308 37.5821 26.8203 37.3825 26.8203 37.1363Z" fill="#333333"/>
<path fill-rule="evenodd" clip-rule="evenodd" d="M50.79 17.3899C50.79 17.1304 51.0005 16.9199 51.26 16.9199H56.9C57.1596 16.9199 57.37 17.1304 57.37 17.3899C57.37 17.6495 57.1596 17.8599 56.9 17.8599H51.26C51.0005 17.8599 50.79 17.6495 50.79 17.3899Z" fill="#333333"/>
<path fill-rule="evenodd" clip-rule="evenodd" d="M50.79 22.0901C50.79 21.8306 51.0005 21.6201 51.26 21.6201H66.3C66.5596 21.6201 66.77 21.8306 66.77 22.0901C66.77 22.3497 66.5596 22.5601 66.3 22.5601H58.78H51.26C51.0005 22.5601 50.79 22.3497 50.79 22.0901Z" fill="#333333"/>
<path fill-rule="evenodd" clip-rule="evenodd" d="M50.79 26.7901C50.79 26.5305 51.0005 26.3201 51.26 26.3201H66.3C66.5596 26.3201 66.77 26.5305 66.77 26.7901C66.77 27.0496 66.5596 27.2601 66.3 27.2601H51.26C51.0005 27.2601 50.79 27.0496 50.79 26.7901Z" fill="#333333"/>
<path fill-rule="evenodd" clip-rule="evenodd" d="M27.0254 41.8335C27.0254 41.5739 27.2358 41.3635 27.4954 41.3635H38.7754C39.0349 41.3635 39.2454 41.5739 39.2454 41.8335C39.2454 42.0931 39.0349 42.3035 38.7754 42.3035H27.4954C27.2358 42.3035 27.0254 42.0931 27.0254 41.8335Z" fill="#333333"/>
<path d="M34.3401 18.3837C34.3401 19.422 33.4984 20.2637 32.4601 20.2637C31.4218 20.2637 30.5801 19.422 30.5801 18.3837C30.5801 17.3453 31.4218 16.5037 32.4601 16.5037C33.4984 16.5037 34.3401 17.3453 34.3401 18.3837Z" fill="url(#paint2_linear_325_60648)"/>
<defs>
<linearGradient id="paint0_linear_325_60648" x1="62.0703" y1="7.58608" x2="72.4176" y2="17.8488" gradientUnits="userSpaceOnUse">
<stop stop-color="#FFC671"/>
<stop offset="0.59375" stop-color="#FF7541"/>
<stop offset="1" stop-color="#FF6F3D"/>
</linearGradient>
<linearGradient id="paint1_linear_325_60648" x1="8.13659" y1="52.2066" x2="45.6791" y2="111.637" gradientUnits="userSpaceOnUse">
<stop stop-color="#FFC671"/>
<stop offset="0.652615" stop-color="#FF8657"/>
</linearGradient>
<linearGradient id="paint2_linear_325_60648" x1="32.4601" y1="16.5037" x2="32.4601" y2="20.2637" gradientUnits="userSpaceOnUse">
<stop stop-color="#FF8E3D"/>
<stop offset="1" stop-color="#FF6F3D"/>
</linearGradient>
</defs>
</svg>
