<svg width="24" height="24" viewBox="0 0 24 24" fill="none" xmlns="http://www.w3.org/2000/svg">
<path d="M4 3H15L20 8V21H4V3Z" fill="white"/>
<path fill-rule="evenodd" clip-rule="evenodd" d="M4 14H11.5H20V8L15 3H4V14ZM15 2H3V15H21V8L15 2Z" fill="url(#paint0_linear_737_60917)"/>
<path d="M6 18C6.59102 18 7 18 7 17.5C7 17 6.6067 17 6 17V18Z" fill="#F36700"/>
<path d="M11 17.5C11 18 10.591 18 10 18V17C10.6067 17 11 17 11 17.5Z" fill="#F36700"/>
<path fill-rule="evenodd" clip-rule="evenodd" d="M3 15C3 14.4477 3.44772 14 4 14H20C20.5523 14 21 14.4477 21 15V22C21 22.5523 20.5523 23 20 23H4C3.44772 23 3 22.5523 3 22V15ZM5 21.0107V16C7.5 16 8 16 8 17.5C8 19 7.50002 19 6.00007 19L6 21L5 21.0107ZM9 16V21.0107L10 21V19C11.4999 19 12 19 12 17.5C12 16 11.5 16 9 16ZM14 17H13V16H16V17H15V21H14V17ZM18 16L18.5 17.5282L19 16H20L19.0831 18.5L20 21H19L18.5 19.4718L18 21H17L17.9169 18.5L17 16H18Z" fill="#F36700"/>
<path d="M5 4H14V5H6V12H18V9H19V13H5V4Z" fill="#BFBFBF"/>
<path d="M7 8V6H9V8H7Z" fill="#BFBFBF"/>
<path d="M10 8V6H13V7H14V8H10Z" fill="#BFBFBF"/>
<path d="M9 9H7V11H9V9Z" fill="#BFBFBF"/>
<path d="M10 11V9H17V10H14V11H10Z" fill="#BFBFBF"/>
<path opacity="0.3" d="M13 10V3H14V9H20V10H13Z" fill="black"/>
<defs>
<linearGradient id="paint0_linear_737_60917" x1="11.5" y1="22.3" x2="11.5" y2="2" gradientUnits="userSpaceOnUse">
<stop stop-color="#A8A8A8"/>
<stop offset="1" stop-color="#DADADA"/>
</linearGradient>
</defs>
</svg>
