<svg width="33" height="32" viewBox="0 0 33 32" fill="none" xmlns="http://www.w3.org/2000/svg">
<path d="M4.33301 1H19.333L28.333 10V31H4.33301V1Z" fill="white"/>
<path fill-rule="evenodd" clip-rule="evenodd" d="M4.33301 31H28.333V10L19.333 1H4.33301V31ZM19.333 0H3.33301V32H29.333V10L19.333 0Z" fill="#BFBFBF"/>
<path d="M9.33301 23H8.33301V24H9.33301V23Z" fill="#F36700"/>
<path d="M12.333 23H13.333V24H12.333V23Z" fill="#F36700"/>
<path fill-rule="evenodd" clip-rule="evenodd" d="M6.33301 21C6.33301 20.4477 6.78072 20 7.33301 20H25.333C25.8853 20 26.333 20.4477 26.333 21V28C26.333 28.5523 25.8853 29 25.333 29H7.33301C6.78072 29 6.33301 28.5523 6.33301 28V21ZM22.333 22H21.333V24H22.333V25H21.333V27H22.333V25H24.333V27H25.333V25H24.333V24H25.333V22H24.333V24H22.333V22ZM15.333 22H20.333V23H18.333V27H17.333V23H15.333V22ZM7.33301 22V27H8.33301V25H10.333V22H7.33301ZM11.333 27V22H14.333V25H12.333V27H11.333Z" fill="#F36700"/>
<path d="M6.33301 4V18H26.333V9H25.333V17H7.33301V5H19.333V4H6.33301Z" fill="#BFBFBF"/>
<path d="M19.333 7H16.333V6H12.333V8H19.333V7Z" fill="#BFBFBF"/>
<path d="M10.333 6H8.33301V8H10.333V6Z" fill="#BFBFBF"/>
<path d="M17.333 10V11H15.333V12H12.333V10H17.333Z" fill="#BFBFBF"/>
<path d="M10.333 14H8.33301V16H10.333V14Z" fill="#BFBFBF"/>
<path d="M12.333 14H15.333V15H23.333V16H12.333V14Z" fill="#BFBFBF"/>
<path d="M10.333 10H8.33301V12H10.333V10Z" fill="#BFBFBF"/>
<path opacity="0.3" d="M18.333 10.0002V1H19.333V9.00024H28.333L29.333 10L18.333 10.0002Z" fill="black"/>
</svg>
