<svg width="49" height="48" viewBox="0 0 49 48" fill="none" xmlns="http://www.w3.org/2000/svg">
<path d="M32.5 32L24.5 24L16.5 32" stroke="#333333" stroke-width="2" stroke-linecap="round" stroke-linejoin="round"/>
<path d="M24.5 24V42" stroke="#333333" stroke-width="2" stroke-linecap="round" stroke-linejoin="round"/>
<path d="M41.2799 36.78C43.2306 35.7165 44.7716 34.0337 45.6597 31.9972C46.5477 29.9607 46.7323 27.6864 46.1843 25.5334C45.6363 23.3803 44.3869 21.471 42.6333 20.1069C40.8796 18.7427 38.7216 18.0014 36.4999 18H33.9799C33.3745 15.6585 32.2462 13.4846 30.6798 11.642C29.1134 9.79927 27.1496 8.33567 24.9361 7.36118C22.7226 6.3867 20.317 5.92669 17.9002 6.01573C15.4833 6.10478 13.1181 6.74057 10.9823 7.8753C8.84649 9.01003 6.99574 10.6142 5.56916 12.5671C4.14259 14.5201 3.1773 16.771 2.74588 19.1508C2.31446 21.5305 2.42813 23.977 3.07835 26.3065C3.72856 28.636 4.8984 30.7877 6.49992 32.6" stroke="#333333" stroke-width="2" stroke-linecap="round" stroke-linejoin="round"/>
<path d="M32.5 32L24.5 24L16.5 32" stroke="#333333" stroke-width="2" stroke-linecap="round" stroke-linejoin="round"/>
</svg>
