<svg width="33" height="32" viewBox="0 0 33 32" fill="none" xmlns="http://www.w3.org/2000/svg">
<path d="M4.66699 1H19.667L28.667 10V31H4.66699V1Z" fill="white"/>
<path fill-rule="evenodd" clip-rule="evenodd" d="M4.66699 31H28.667V10L19.667 1H4.66699V31ZM19.667 0H3.66699V32H29.667V10L19.667 0Z" fill="#BFBFBF"/>
<path fill-rule="evenodd" clip-rule="evenodd" d="M7.66699 20C7.11471 20 6.66699 20.4477 6.66699 21V28C6.66699 28.5523 7.11471 29 7.66699 29H25.667C26.2193 29 26.667 28.5523 26.667 28V21C26.667 20.4477 26.2193 20 25.667 20H7.66699ZM15.667 22H16.667V26H18.667V27H15.667V22ZM23.667 22H21.667V23H20.667V24H21.667V25H23.667V26H20.667V27H23.667V26H24.667V25H23.667V24H21.667V23H23.667V22ZM10.667 23V22H8.66699V23H9.66699V24H10.667V25H9.66699V26H8.66699V27H10.667V26H11.667V27H13.667V26H12.667V25H11.667V24H12.667V23H13.667V22H11.667V23H10.667Z" fill="#6AAA1E"/>
<path fill-rule="evenodd" clip-rule="evenodd" d="M6.66699 18H26.667V9H13.667V6H19.667L19.5861 5H6.66699V18ZM20.667 10V13H25.667V10H20.667ZM19.667 13V10H13.667V13H19.667ZM12.667 6V9H7.66699V6H12.667ZM7.66699 10H12.667V13H7.66699V10ZM7.66699 14H12.667V17H7.66699V14ZM19.667 14H13.667V17H19.667V14ZM20.667 17V14H25.667V17H20.667Z" fill="#BFBFBF"/>
<path opacity="0.3" d="M18.667 10.0002V1H19.667V9.00024H28.667L29.667 10L18.667 10.0002Z" fill="black"/>
</svg>
