<svg width="32" height="32" viewBox="0 0 32 32" fill="none" xmlns="http://www.w3.org/2000/svg">
<path d="M4 1H19L28 10V31H4V1Z" fill="white"/>
<path fill-rule="evenodd" clip-rule="evenodd" d="M4 31H28V10L19 1H4V31ZM19 0H3V32H29V10L19 0Z" fill="#BFBFBF"/>
<path fill-rule="evenodd" clip-rule="evenodd" d="M6 21C6 20.4477 6.44772 20 7 20H25C25.5523 20 26 20.4477 26 21V28C26 28.5523 25.5523 29 25 29H7C6.44772 29 6 28.5523 6 28V21ZM13 22H12V27H15V26H13V22ZM17 22H19V23H17V22ZM17 24H16V23H17V24ZM19 25H17V24H19V25ZM19 26V25H20V26H19ZM19 26V27H16V26H19ZM11 22H10V24H8V22H7V24H8V25H7V27H8V25H10V27H11V25H10V24H11V22ZM24 22H25V24H24V22ZM24 25V24H22V22H21V24H22V25H21V27H22V25H24ZM24 25H25V27H24V25Z" fill="#6AAA1E"/>
<path fill-rule="evenodd" clip-rule="evenodd" d="M6 18H26V9H13V6H19L18.9191 5H6V18ZM20 10V13H25V10H20ZM19 13V10H13V13H19ZM12 6V9H7V6H12ZM7 10H12V13H7V10ZM7 14H12V17H7V14ZM19 14H13V17H19V14ZM20 17V14H25V17H20Z" fill="#BFBFBF"/>
<path opacity="0.3" d="M18 10.0002V1H19V9.00024H28L29 10L18 10.0002Z" fill="black"/>
</svg>
