<svg width="24" height="24" viewBox="0 0 24 24" fill="none" xmlns="http://www.w3.org/2000/svg">
<path d="M4 3H15L20 8V21H4V3Z" fill="white"/>
<path fill-rule="evenodd" clip-rule="evenodd" d="M4 14H11.5H20V8L15 3H4V14ZM15 2H3V15H21V8L15 2Z" fill="url(#paint0_linear_737_60916)"/>
<path fill-rule="evenodd" clip-rule="evenodd" d="M3 15C3 14.4477 3.44772 14 4 14H20C20.5523 14 21 14.4477 21 15V22C21 22.5523 20.5523 23 20 23H4C3.44772 23 3 22.5523 3 22V15ZM11 20V21H9V16H10V20H11ZM6 16L6.50001 17.5282L7 16H8L7.0831 18.5L8 21H7L6.50001 19.4718L6 21H5L5.91691 18.5L5 16H6ZM17.5 17.5282L17 16H16L16.9169 18.5L16 21H17L17.5 19.4718L18 21H19L18.0831 18.5L19 16H18L17.5 17.5282ZM12.6582 19.5547C12.6582 19.5547 13.2754 20 13.5918 20C13.9355 20 14.1094 19.7734 14.1094 19.5547C14.1094 19.3534 13.788 19.1611 13.3961 18.9266C12.784 18.5603 12 18.0911 12 17.3242C12 16.5336 12.7407 16 13.5312 16C14.4375 16 14.9219 16.625 14.9219 16.625L14.2812 17.3672C14.2812 17.3672 14.0645 17 13.6172 17C13.3105 17 13.0195 17.0781 13.0195 17.3438C13.0195 17.524 13.3234 17.715 13.6975 17.9501C14.2961 18.3264 15.0746 18.8157 15.0746 19.5547C15.0746 20.4204 14.416 21.0039 13.5357 21.0039C12.8301 21.0039 12.0684 20.3242 12.0684 20.3242L12.6582 19.5547Z" fill="#6AAA1E"/>
<path fill-rule="evenodd" clip-rule="evenodd" d="M5 5H14V11H17V9H18V12H5V5ZM13 11V9H10V11H13ZM9 11V9H6V11H9ZM6 8H9V6H6V8ZM10 6V8H13V6H10Z" fill="#BFBFBF"/>
<path opacity="0.3" d="M13 10V3H14V9H20V10H13Z" fill="black"/>
<defs>
<linearGradient id="paint0_linear_737_60916" x1="11.5" y1="22.3" x2="11.5" y2="2" gradientUnits="userSpaceOnUse">
<stop stop-color="#A8A8A8"/>
<stop offset="1" stop-color="#DADADA"/>
</linearGradient>
</defs>
</svg>
